<svg width="14" height="14" viewBox="0 0 14 14" fill="none" xmlns="http://www.w3.org/2000/svg">
<path d="M0 11C0.10328 9.86683 0.453732 8.82618 1.05135 7.87805C1.64898 6.93042 2.44514 6.1773 3.43984 5.6187L2.26515 3.59875C2.19947 3.496 2.18292 3.39426 2.21551 3.29351C2.2486 3.19276 2.31804 3.11122 2.42383 3.04887C2.5241 2.996 2.62262 2.98603 2.71938 3.01895C2.81564 3.05137 2.89561 3.11521 2.95928 3.21047L4.13623 5.24164C5.0487 4.86059 6.00329 4.67007 7 4.67007C7.99671 4.67007 8.95129 4.86059 9.86377 5.24164L11.0407 3.21047C11.1044 3.1157 11.1846 3.05186 11.2814 3.01895C11.3776 2.98603 11.4756 2.996 11.5754 3.04887C11.6817 3.11122 11.7514 3.19276 11.7845 3.29351C11.8171 3.39426 11.8005 3.496 11.7349 3.59875L10.5609 5.6187C11.5551 6.1773 12.351 6.93042 12.9486 7.87805C13.5463 8.82618 13.8967 9.86658 14 10.9993L0 11ZM3.82037 9.25835C4.04347 9.25835 4.23149 9.18179 4.3844 9.02868C4.53732 8.87506 4.61377 8.68728 4.61377 8.46533C4.61377 8.24339 4.53656 8.05636 4.38214 7.90424C4.22773 7.75212 4.03921 7.67606 3.81661 7.67606C3.59401 7.67606 3.40599 7.75287 3.25258 7.90648C3.09916 8.0601 3.02245 8.24763 3.02245 8.46908C3.02245 8.69152 3.09966 8.87855 3.25408 9.03017C3.4085 9.18179 3.59726 9.25785 3.82037 9.25835ZM10.1841 9.25835C10.4072 9.25835 10.5953 9.18179 10.7482 9.02868C10.9006 8.87506 10.9768 8.68728 10.9768 8.46533C10.9768 8.24339 10.8998 8.05636 10.7459 7.90424C10.592 7.75212 10.4032 7.67606 10.1796 7.67606C9.95602 7.67606 9.76801 7.75287 9.6156 7.90648C9.46318 8.0601 9.38673 8.24763 9.38623 8.46908C9.38573 8.69052 9.46268 8.87755 9.6171 9.03017C9.77152 9.18279 9.96104 9.25885 10.1841 9.25835Z" fill="white"/>
</svg>
