<svg width="14" height="16" viewBox="0 0 14 16" fill="none" xmlns="http://www.w3.org/2000/svg">
<path d="M11.9794 13.2492C11.3655 14.1171 10.7147 14.9641 9.72369 14.9781C8.73267 14.9991 8.41465 14.4251 7.2905 14.4251C6.15896 14.4251 5.81136 14.9641 4.8721 14.9991C3.90326 15.0341 3.17108 14.0751 2.54984 13.2282C1.28517 11.4993 0.316332 8.31451 1.61798 6.17266C2.26141 5.10873 3.41514 4.43677 4.66502 4.41577C5.61167 4.40177 6.51395 5.02473 7.09821 5.02473C7.67508 5.02473 8.76965 4.27578 9.91598 4.38777C10.3967 4.40877 11.7427 4.56976 12.608 5.77368C12.5415 5.81568 11.0032 6.66962 11.0179 8.44051C11.0401 10.5544 12.9778 11.2613 13 11.2683C12.9778 11.3173 12.6894 12.2763 11.9794 13.2492ZM7.75643 2.04993C8.29632 1.46897 9.1912 1.028 9.93077 1C10.0269 1.81895 9.67932 2.64489 9.16162 3.23285C8.65131 3.82781 7.8082 4.28978 6.97988 4.22679C6.86894 3.42184 7.28311 2.58189 7.75643 2.04993Z" fill="white"/>
</svg>
